<svg width="940" height="826" viewBox="0 0 940 826" fill="none" xmlns="http://www.w3.org/2000/svg">

<path d="M877.317 438.063C882.122 417.554 870.087 396.785 849.926 390.637L844.586 389.137C832.093 385.789 797.085 377.706 751.962 374.561C759.815 314.549 755.295 269.235 754.888 265.606C753.708 254.758 748.13 244.871 739.474 238.231C735.26 235.004 730.5 232.679 725.477 231.333C720.17 229.911 714.584 229.587 709.043 230.435C705.875 230.925 670.9 236.627 624.624 253.601C607.9 179.55 579.639 127.129 577.552 123.327C572.294 113.745 563.361 106.742 552.827 103.919C542.292 101.096 531.055 102.695 521.726 108.353C518.017 110.603 467.262 141.921 415.724 197.749C384.203 160.012 356.784 137.37 354.297 135.366C349.923 131.861 344.921 129.349 339.616 127.927C334.594 126.581 329.309 126.213 324.045 126.903C313.228 128.325 303.463 134.115 297.009 142.903C294.854 145.846 268.286 182.815 245.079 238.728C204.406 218.871 170.053 208.396 157.561 205.049L152.16 203.671C131.638 198.918 110.818 210.884 104.726 231.047C102.554 238.223 52.5247 408.503 130.548 543.661C201.834 667.131 353.321 713.009 382.967 720.952L386.947 721.964C387.024 721.984 387.087 722.056 387.166 722.077C387.243 722.098 387.334 722.067 387.412 722.088L391.365 723.202C421.012 731.146 575.143 767.159 698.612 695.873C833.793 617.856 875.605 445.375 877.317 438.063ZM715.127 269.957C715.127 269.957 719.744 314.648 711.569 373.442C687.505 373.716 661.989 375.907 635.878 380.988C637.595 350.625 635.841 321.264 631.872 293.78C678.994 275.762 715.127 269.957 715.127 269.957ZM329.248 166.561C329.248 166.561 357.659 189.579 389.484 228.75C372.259 250.638 355.994 275.281 342.272 302.538C322.2 285.081 301.27 270.308 280.558 258.022C302.88 202.992 329.248 166.561 329.248 166.561ZM165.206 523.67C94.9283 401.948 143.018 242.62 143.018 242.62C143.018 242.62 144.484 242.97 147.188 243.695C167.433 249.12 256.801 276.516 325.223 341.022C321.573 350.936 318.267 361.107 315.458 371.59C283.589 490.526 321.218 608.291 345.373 666.044C291.745 644.621 209.942 601.156 165.206 523.67ZM398.632 682.773C397.951 682.329 397.28 681.9 396.419 681.297C386.791 662.829 316.775 521.23 354.096 381.944C394.12 232.574 542.475 142.545 542.475 142.545C542.475 142.545 625.941 294.69 585.917 444.061C547.512 587.39 409.739 675.838 398.632 682.773ZM678.65 661.247C601.164 705.983 508.588 702.724 451.432 694.464C501.215 656.523 592.685 573.35 624.554 454.413C627.38 443.865 629.621 433.34 631.407 422.859C722.905 401.245 813.999 422.354 834.231 427.775C836.935 428.499 838.38 428.928 838.38 428.928C838.38 428.928 800.359 590.968 678.65 661.247Z" fill="url(#paint0_linear_143_35)"
/>
<defs>
<linearGradient id="paint0_linear_143_35" x1="52.5" y1="129" x2="860" y2="665.5" gradientUnits="userSpaceOnUse">
<stop offset="0.08" stop-color="#BCBEC0"/>
<stop offset="0.584314" stop-color="#DEBDD0"/>
<stop offset="1" stop-color="#FFBCE0"/>
</linearGradient>
</defs>
</svg>
