<svg width="138" height="149" viewBox="0 0 138 149" fill="none" xmlns="http://www.w3.org/2000/svg">
<path d="M88.1428 7.9094C86.8103 7.50892 85.3319 7.95156 84.0584 9.1337C83.4638 9.68546 82.8922 10.4662 82.61 11.112C82.0506 12.3873 82.0741 13.6539 82.6699 14.5608C83.0073 15.0748 83.4546 15.387 83.9884 15.486C84.3625 15.5553 84.9234 15.5513 85.3313 15.4762C86.4134 15.2793 87.4792 14.6286 88.2916 13.6698C88.5699 13.3409 88.6935 13.1642 88.9282 12.754C89.3802 11.9711 89.5999 11.3366 89.6479 10.6893C89.7204 9.70451 89.423 8.85988 88.8094 8.30506C88.6403 8.15349 88.3219 7.96534 88.1428 7.9094Z" fill="#C9BA46"/>
<path d="M80.6216 3.66631C79.9076 3.40505 79.001 3.56318 78.214 4.08582C77.7843 4.37049 77.4692 4.69969 77.0881 5.2626C76.9202 5.50859 76.6918 5.92667 76.5715 6.2023C75.8901 7.76726 75.8615 9.4007 76.4954 10.6898C76.6221 10.9484 76.867 11.3163 77.0551 11.5284C77.1884 11.6787 77.2267 11.7094 77.4048 11.823C77.6418 11.9728 77.828 12.0501 78.0791 12.1045C78.4682 12.189 78.832 12.179 79.23 12.0723C80.0184 11.8611 80.7642 11.2866 81.3488 10.4422C81.589 10.0934 81.8704 9.53124 82.0368 9.06006C82.7162 7.15104 82.4624 5.30066 81.3675 4.16381C81.1484 3.9381 80.8901 3.76528 80.6216 3.66631Z" fill="#C9BA46"/>
<path d="M89.4799 16.6508C88.295 16.2039 86.923 16.4061 85.6737 17.214C85.0982 17.587 84.7139 17.9388 84.2221 18.5478C84.0467 18.7657 83.9879 18.8525 83.8291 19.1275C83.6349 19.464 83.5581 19.6418 83.4707 19.9537C83.2356 20.7906 83.3312 21.6374 83.7241 22.2158C83.9386 22.5316 84.1795 22.7419 84.5011 22.8909C85.281 23.2548 86.1359 23.302 87.0758 23.0337C88.1121 22.7369 89.0946 22.0662 89.8033 21.1748C89.9806 20.9537 90.2829 20.4898 90.3846 20.2875C90.9057 19.2468 90.8762 18.0501 90.3108 17.2923C90.0916 16.9996 89.7965 16.7711 89.4799 16.6508Z" fill="#C9BA46"/>
<path d="M72.49 7.40679C71.7182 7.11863 70.8423 7.26856 70.2485 7.79275C70.0382 7.97762 69.7839 8.26863 69.5836 8.55201C68.8567 9.57951 68.5305 11.026 68.7295 12.3401C68.8789 13.3214 69.3032 14.1854 69.9576 14.8414C70.5086 15.3925 71.1894 15.5656 71.9727 15.3557C72.6719 15.1684 73.267 14.6493 73.7592 13.7968C73.9507 13.4652 74.0391 13.2747 74.1583 12.9337C74.5699 11.7651 74.5541 10.4102 74.116 9.2751C73.9146 8.7534 73.5683 8.1803 73.2938 7.91613C73.0779 7.70735 72.7667 7.51043 72.49 7.40679Z" fill="#C9BA46"/>
<path d="M78.606 16.1981C78.0066 15.9362 77.3633 15.7654 76.6758 15.6898C75.624 15.5764 74.4594 15.7258 73.5503 16.0938C71.5879 16.889 69.901 18.0028 68.7483 19.2633C68.6776 19.3411 68.5661 19.4557 68.5012 19.5196C68.1658 19.8501 67.9259 20.3068 67.8415 20.7779C67.7056 21.5363 67.9146 22.3062 68.4036 22.8602C68.6959 23.1907 69.2387 23.502 69.9149 23.7242C70.3547 23.8702 70.7032 23.9464 71.7163 24.1193C73.1271 24.358 73.4966 24.4613 74.3199 24.8396C74.688 25.009 74.752 25.0438 74.9828 25.2007C75.5738 25.6002 75.9832 26.0156 76.6978 26.9371C77.3308 27.7534 77.6879 28.2033 77.7857 28.3029C78.7598 29.3053 80.1508 29.567 81.0542 28.9175C81.4505 28.6308 81.8332 28.0128 82.0323 27.3318C82.2252 26.6689 82.3475 25.4821 82.3101 24.6129C82.2064 22.159 81.9689 20.6912 81.4664 19.3874C80.9935 18.1632 80.4462 17.3964 79.5911 16.7669C79.3507 16.5892 78.8848 16.3203 78.606 16.1981Z" fill="#C9BA46"/>
<path d="M88.1428 7.9094C86.8103 7.50892 85.3319 7.95156 84.0584 9.1337C83.4638 9.68546 82.8922 10.4662 82.61 11.112C82.0506 12.3873 82.0741 13.6539 82.6699 14.5608C83.0073 15.0748 83.4546 15.387 83.9884 15.486C84.3625 15.5553 84.9234 15.5513 85.3313 15.4762C86.4134 15.2793 87.4792 14.6286 88.2916 13.6698C88.5699 13.3409 88.6935 13.1642 88.9282 12.754C89.3802 11.9711 89.5999 11.3366 89.6479 10.6893C89.7204 9.70451 89.423 8.85988 88.8094 8.30506C88.6403 8.15349 88.3219 7.96534 88.1428 7.9094Z" fill="#C9BA46"/>
<path d="M80.6216 3.66631C79.9076 3.40505 79.001 3.56318 78.214 4.08582C77.7843 4.37049 77.4692 4.69969 77.0881 5.2626C76.9202 5.50859 76.6918 5.92667 76.5715 6.2023C75.8901 7.76726 75.8615 9.4007 76.4954 10.6898C76.6221 10.9484 76.867 11.3163 77.0551 11.5284C77.1884 11.6787 77.2267 11.7094 77.4048 11.823C77.6418 11.9728 77.828 12.0501 78.0791 12.1045C78.4682 12.189 78.832 12.179 79.23 12.0723C80.0184 11.8611 80.7642 11.2866 81.3488 10.4422C81.589 10.0934 81.8704 9.53124 82.0368 9.06006C82.7162 7.15104 82.4624 5.30066 81.3675 4.16381C81.1484 3.9381 80.8901 3.76528 80.6216 3.66631Z" fill="#C9BA46"/>
<path d="M89.4799 16.6508C88.295 16.2039 86.923 16.4061 85.6737 17.214C85.0982 17.587 84.7139 17.9388 84.2221 18.5478C84.0467 18.7657 83.9879 18.8525 83.8291 19.1275C83.6349 19.464 83.5581 19.6418 83.4707 19.9537C83.2356 20.7906 83.3312 21.6374 83.7241 22.2158C83.9386 22.5316 84.1795 22.7419 84.5011 22.8909C85.281 23.2548 86.1359 23.302 87.0758 23.0337C88.1121 22.7369 89.0946 22.0662 89.8033 21.1748C89.9806 20.9537 90.2829 20.4898 90.3846 20.2875C90.9057 19.2468 90.8762 18.0501 90.3108 17.2923C90.0916 16.9996 89.7965 16.7711 89.4799 16.6508Z" fill="#C9BA46"/>
<path d="M72.49 7.40679C71.7182 7.11863 70.8423 7.26856 70.2485 7.79275C70.0382 7.97762 69.7839 8.26863 69.5836 8.55201C68.8567 9.57951 68.5305 11.026 68.7295 12.3401C68.8789 13.3214 69.3032 14.1854 69.9576 14.8414C70.5086 15.3925 71.1894 15.5656 71.9727 15.3557C72.6719 15.1684 73.267 14.6493 73.7592 13.7968C73.9507 13.4652 74.0391 13.2747 74.1583 12.9337C74.5699 11.7651 74.5541 10.4102 74.116 9.2751C73.9146 8.7534 73.5683 8.1803 73.2938 7.91613C73.0779 7.70735 72.7667 7.51043 72.49 7.40679Z" fill="#C9BA46"/>
<path d="M78.606 16.1981C78.0066 15.9362 77.3633 15.7654 76.6758 15.6898C75.624 15.5764 74.4594 15.7258 73.5503 16.0938C71.5879 16.889 69.901 18.0028 68.7483 19.2633C68.6776 19.3411 68.5661 19.4557 68.5012 19.5196C68.1658 19.8501 67.9259 20.3068 67.8415 20.7779C67.7056 21.5363 67.9146 22.3062 68.4036 22.8602C68.6959 23.1907 69.2387 23.502 69.9149 23.7242C70.3547 23.8702 70.7032 23.9464 71.7163 24.1193C73.1271 24.358 73.4966 24.4613 74.3199 24.8396C74.688 25.009 74.752 25.0438 74.9828 25.2007C75.5738 25.6002 75.9832 26.0156 76.6978 26.9371C77.3308 27.7534 77.6879 28.2033 77.7857 28.3029C78.7598 29.3053 80.1508 29.567 81.0542 28.9175C81.4505 28.6308 81.8332 28.0128 82.0323 27.3318C82.2252 26.6689 82.3475 25.4821 82.3101 24.6129C82.2064 22.159 81.9689 20.6912 81.4664 19.3874C80.9935 18.1632 80.4462 17.3964 79.5911 16.7669C79.3507 16.5892 78.8848 16.3203 78.606 16.1981Z" fill="#C9BA46"/>
<path d="M130.828 12.9942C129.527 12.5018 128.021 12.8404 126.669 13.9309C126.037 14.4399 125.413 15.179 125.086 15.8035C124.439 17.0367 124.374 18.3019 124.905 19.2481C125.206 19.7844 125.631 20.127 126.156 20.2629C126.525 20.3581 127.085 20.3932 127.497 20.3467C128.59 20.2256 129.698 19.6508 130.576 18.751C130.876 18.4423 131.012 18.2746 131.274 17.8818C131.78 17.1323 132.043 16.5146 132.136 15.8722C132.277 14.8949 132.039 14.0316 131.466 13.4353C131.308 13.2723 131.003 13.0625 130.828 12.9942Z" fill="#C9BA46"/>
<path d="M123.621 8.23729C122.927 7.92691 122.012 8.0215 121.19 8.48803C120.742 8.74207 120.405 9.04852 119.985 9.5835C119.801 9.81719 119.544 10.2183 119.404 10.4849C118.616 11.9986 118.473 13.6261 119.016 14.9562C119.124 15.2231 119.343 15.6071 119.516 15.8318C119.638 15.991 119.674 16.0243 119.844 16.1501C120.07 16.316 120.25 16.4061 120.497 16.4778C120.879 16.5892 121.243 16.6046 121.647 16.5259C122.449 16.3701 123.233 15.849 123.875 15.0474C124.138 14.7162 124.458 14.175 124.657 13.7165C125.468 11.8595 125.344 9.99592 124.331 8.78554C124.128 8.54512 123.882 8.35472 123.621 8.23729Z" fill="#C9BA46"/>
<path d="M131.553 21.8074C130.403 21.279 129.02 21.3851 127.717 22.104C127.117 22.436 126.709 22.7602 126.176 23.3334C125.986 23.5386 125.921 23.6211 125.744 23.8844C125.527 24.2065 125.438 24.3785 125.329 24.6836C125.036 25.5021 125.072 26.3534 125.424 26.9578C125.616 27.2878 125.842 27.5143 126.152 27.6854C126.905 28.1028 127.754 28.2094 128.711 28.0073C129.765 27.7834 130.792 27.1827 131.561 26.3429C131.753 26.1347 132.087 25.693 132.203 25.4983C132.795 24.4964 132.849 23.3006 132.338 22.5052C132.139 22.198 131.861 21.9494 131.553 21.8074Z" fill="#C9BA46"/>
<path d="M115.249 11.402C114.499 11.0608 113.615 11.1493 112.986 11.6309C112.763 11.8006 112.489 12.0732 112.27 12.342C111.473 13.3163 111.047 14.7366 111.154 16.0613C111.234 17.0507 111.597 17.9421 112.204 18.6421C112.716 19.2302 113.383 19.4503 114.179 19.2955C114.889 19.1574 115.519 18.681 116.07 17.8649C116.284 17.5475 116.385 17.3636 116.528 17.0317C117.02 15.8947 117.099 14.5419 116.741 13.3791C116.576 12.8446 116.271 12.2488 116.015 11.9661C115.814 11.7428 115.518 11.5247 115.249 11.402Z" fill="#C9BA46"/>
<path d="M120.737 20.5982C120.158 20.2952 119.528 20.0799 118.847 19.9567C117.806 19.7703 116.634 19.8381 115.701 20.1419C113.688 20.7985 111.928 21.792 110.69 22.9692C110.614 23.0418 110.495 23.1484 110.426 23.2076C110.068 23.514 109.797 23.9529 109.68 24.4169C109.491 25.164 109.646 25.9465 110.095 26.5333C110.364 26.8834 110.884 27.2317 111.543 27.5004C111.971 27.6768 112.314 27.777 113.312 28.0201C114.703 28.3565 115.065 28.4854 115.86 28.9201C116.215 29.1147 116.276 29.1539 116.496 29.3265C117.057 29.7662 117.437 30.2091 118.086 31.1782C118.66 32.0366 118.985 32.5103 119.076 32.6164C119.978 33.6843 121.347 34.0423 122.293 33.4573C122.709 33.1989 123.134 32.609 123.38 31.9436C123.618 31.2958 123.823 30.1204 123.846 29.2507C123.914 26.7955 123.779 25.3147 123.369 23.979C122.982 22.7249 122.49 21.9218 121.68 21.2342C121.453 21.0403 121.007 20.7395 120.737 20.5982Z" fill="#C9BA46"/>
<path d="M65.1428 43.9094C63.8103 43.5089 62.3319 43.9516 61.0584 45.1337C60.4638 45.6855 59.8922 46.4662 59.61 47.112C59.0506 48.3873 59.0741 49.6539 59.6699 50.5608C60.0073 51.0748 60.4546 51.387 60.9884 51.486C61.3625 51.5553 61.9234 51.5513 62.3313 51.4762C63.4134 51.2793 64.4792 50.6286 65.2916 49.6698C65.5699 49.3409 65.6935 49.1642 65.9282 48.754C66.3802 47.9711 66.5999 47.3366 66.6479 46.6893C66.7204 45.7045 66.423 44.8599 65.8094 44.3051C65.6403 44.1535 65.3219 43.9653 65.1428 43.9094Z" fill="#C9BA46"/>
<path d="M57.6216 39.6663C56.9076 39.405 56.001 39.5632 55.214 40.0858C54.7843 40.3705 54.4692 40.6997 54.0881 41.2626C53.9202 41.5086 53.6918 41.9267 53.5715 42.2023C52.8901 43.7673 52.8615 45.4007 53.4954 46.6898C53.6221 46.9484 53.867 47.3163 54.0551 47.5284C54.1884 47.6787 54.2267 47.7094 54.4048 47.823C54.6418 47.9728 54.828 48.0501 55.0791 48.1045C55.4682 48.189 55.832 48.179 56.23 48.0723C57.0184 47.8611 57.7642 47.2866 58.3488 46.4422C58.589 46.0934 58.8704 45.5312 59.0368 45.0601C59.7162 43.151 59.4624 41.3007 58.3675 40.1638C58.1484 39.9381 57.8901 39.7653 57.6216 39.6663Z" fill="#C9BA46"/>
<path d="M66.4799 52.6508C65.295 52.2039 63.923 52.4061 62.6737 53.214C62.0982 53.587 61.7139 53.9388 61.2221 54.5478C61.0467 54.7657 60.9879 54.8525 60.8291 55.1275C60.6349 55.464 60.5581 55.6418 60.4707 55.9537C60.2356 56.7906 60.3312 57.6374 60.7241 58.2158C60.9386 58.5316 61.1795 58.7419 61.5011 58.8909C62.281 59.2548 63.1359 59.302 64.0758 59.0337C65.1121 58.7369 66.0946 58.0662 66.8033 57.1748C66.9806 56.9537 67.2829 56.4898 67.3846 56.2875C67.9057 55.2468 67.8762 54.0501 67.3108 53.2923C67.0916 52.9996 66.7965 52.7711 66.4799 52.6508Z" fill="#C9BA46"/>
<path d="M49.49 43.4068C48.7182 43.1186 47.8423 43.2686 47.2485 43.7928C47.0382 43.9776 46.7839 44.2686 46.5836 44.552C45.8567 45.5795 45.5305 47.026 45.7295 48.3401C45.8789 49.3214 46.3032 50.1854 46.9576 50.8414C47.5086 51.3925 48.1894 51.5656 48.9727 51.3557C49.6719 51.1684 50.267 50.6493 50.7592 49.7968C50.9507 49.4652 51.0391 49.2747 51.1583 48.9337C51.5699 47.7651 51.5541 46.4102 51.116 45.2751C50.9146 44.7534 50.5683 44.1803 50.2938 43.9161C50.0779 43.7073 49.7667 43.5104 49.49 43.4068Z" fill="#C9BA46"/>
<path d="M55.606 52.1981C55.0066 51.9362 54.3633 51.7654 53.6758 51.6898C52.624 51.5764 51.4594 51.7258 50.5503 52.0938C48.5879 52.889 46.901 54.0028 45.7483 55.2633C45.6776 55.3411 45.5661 55.4557 45.5012 55.5196C45.1658 55.8501 44.9259 56.3068 44.8415 56.7779C44.7056 57.5363 44.9146 58.3062 45.4036 58.8602C45.6959 59.1907 46.2387 59.502 46.9149 59.7242C47.3547 59.8702 47.7032 59.9464 48.7163 60.1193C50.1271 60.358 50.4966 60.4613 51.3199 60.8396C51.688 61.009 51.752 61.0438 51.9828 61.2007C52.5738 61.6002 52.9832 62.0156 53.6978 62.9371C54.3308 63.7534 54.6879 64.2033 54.7857 64.3029C55.7598 65.3053 57.1508 65.567 58.0542 64.9175C58.4505 64.6308 58.8332 64.0128 59.0323 63.3318C59.2252 62.6689 59.3475 61.4821 59.3101 60.6129C59.2064 58.159 58.9689 56.6912 58.4664 55.3874C57.9935 54.1632 57.4462 53.3964 56.5911 52.7669C56.3507 52.5892 55.8848 52.3203 55.606 52.1981Z" fill="#C9BA46"/>
<path d="M65.1428 43.9094C63.8103 43.5089 62.3319 43.9516 61.0584 45.1337C60.4638 45.6855 59.8922 46.4662 59.61 47.112C59.0506 48.3873 59.0741 49.6539 59.6699 50.5608C60.0073 51.0748 60.4546 51.387 60.9884 51.486C61.3625 51.5553 61.9234 51.5513 62.3313 51.4762C63.4134 51.2793 64.4792 50.6286 65.2916 49.6698C65.5699 49.3409 65.6935 49.1642 65.9282 48.754C66.3802 47.9711 66.5999 47.3366 66.6479 46.6893C66.7204 45.7045 66.423 44.8599 65.8094 44.3051C65.6403 44.1535 65.3219 43.9653 65.1428 43.9094Z" fill="#C9BA46"/>
<path d="M57.6216 39.6663C56.9076 39.405 56.001 39.5632 55.214 40.0858C54.7843 40.3705 54.4692 40.6997 54.0881 41.2626C53.9202 41.5086 53.6918 41.9267 53.5715 42.2023C52.8901 43.7673 52.8615 45.4007 53.4954 46.6898C53.6221 46.9484 53.867 47.3163 54.0551 47.5284C54.1884 47.6787 54.2267 47.7094 54.4048 47.823C54.6418 47.9728 54.828 48.0501 55.0791 48.1045C55.4682 48.189 55.832 48.179 56.23 48.0723C57.0184 47.8611 57.7642 47.2866 58.3488 46.4422C58.589 46.0934 58.8704 45.5312 59.0368 45.0601C59.7162 43.151 59.4624 41.3007 58.3675 40.1638C58.1484 39.9381 57.8901 39.7653 57.6216 39.6663Z" fill="#C9BA46"/>
<path d="M66.4799 52.6508C65.295 52.2039 63.923 52.4061 62.6737 53.214C62.0982 53.587 61.7139 53.9388 61.2221 54.5478C61.0467 54.7657 60.9879 54.8525 60.8291 55.1275C60.6349 55.464 60.5581 55.6418 60.4707 55.9537C60.2356 56.7906 60.3312 57.6374 60.7241 58.2158C60.9386 58.5316 61.1795 58.7419 61.5011 58.8909C62.281 59.2548 63.1359 59.302 64.0758 59.0337C65.1121 58.7369 66.0946 58.0662 66.8033 57.1748C66.9806 56.9537 67.2829 56.4898 67.3846 56.2875C67.9057 55.2468 67.8762 54.0501 67.3108 53.2923C67.0916 52.9996 66.7965 52.7711 66.4799 52.6508Z" fill="#C9BA46"/>
<path d="M49.49 43.4068C48.7182 43.1186 47.8423 43.2686 47.2485 43.7928C47.0382 43.9776 46.7839 44.2686 46.5836 44.552C45.8567 45.5795 45.5305 47.026 45.7295 48.3401C45.8789 49.3214 46.3032 50.1854 46.9576 50.8414C47.5086 51.3925 48.1894 51.5656 48.9727 51.3557C49.6719 51.1684 50.267 50.6493 50.7592 49.7968C50.9507 49.4652 51.0391 49.2747 51.1583 48.9337C51.5699 47.7651 51.5541 46.4102 51.116 45.2751C50.9146 44.7534 50.5683 44.1803 50.2938 43.9161C50.0779 43.7073 49.7667 43.5104 49.49 43.4068Z" fill="#C9BA46"/>
<path d="M55.606 52.1981C55.0066 51.9362 54.3633 51.7654 53.6758 51.6898C52.624 51.5764 51.4594 51.7258 50.5503 52.0938C48.5879 52.889 46.901 54.0028 45.7483 55.2633C45.6776 55.3411 45.5661 55.4557 45.5012 55.5196C45.1658 55.8501 44.9259 56.3068 44.8415 56.7779C44.7056 57.5363 44.9146 58.3062 45.4036 58.8602C45.6959 59.1907 46.2387 59.502 46.9149 59.7242C47.3547 59.8702 47.7032 59.9464 48.7163 60.1193C50.1271 60.358 50.4966 60.4613 51.3199 60.8396C51.688 61.009 51.752 61.0438 51.9828 61.2007C52.5738 61.6002 52.9832 62.0156 53.6978 62.9371C54.3308 63.7534 54.6879 64.2033 54.7857 64.3029C55.7598 65.3053 57.1508 65.567 58.0542 64.9175C58.4505 64.6308 58.8332 64.0128 59.0323 63.3318C59.2252 62.6689 59.3475 61.4821 59.3101 60.6129C59.2064 58.159 58.9689 56.6912 58.4664 55.3874C57.9935 54.1632 57.4462 53.3964 56.5911 52.7669C56.3507 52.5892 55.8848 52.3203 55.606 52.1981Z" fill="#C9BA46"/>
<path d="M107.828 48.9942C106.527 48.5018 105.021 48.8404 103.669 49.9309C103.037 50.4399 102.413 51.179 102.086 51.8035C101.439 53.0367 101.374 54.3019 101.905 55.2481C102.206 55.7844 102.631 56.127 103.156 56.2629C103.525 56.3581 104.085 56.3932 104.497 56.3467C105.59 56.2256 106.698 55.6508 107.576 54.751C107.876 54.4423 108.012 54.2746 108.274 53.8818C108.78 53.1323 109.043 52.5146 109.136 51.8722C109.277 50.8949 109.039 50.0316 108.466 49.4353C108.308 49.2723 108.003 49.0625 107.828 48.9942Z" fill="#C9BA46"/>
<path d="M100.621 44.2373C99.9272 43.9269 99.0118 44.0215 98.1903 44.488C97.7419 44.7421 97.4045 45.0485 96.9852 45.5835C96.8005 45.8172 96.5435 46.2183 96.4043 46.4849C95.6155 47.9986 95.4732 49.6261 96.0158 50.9562C96.1242 51.2231 96.3428 51.6071 96.5157 51.8318C96.6381 51.991 96.6742 52.0243 96.844 52.1501C97.07 52.316 97.2503 52.4061 97.4971 52.4778C97.8793 52.5892 98.2429 52.6046 98.6474 52.5259C99.4486 52.3701 100.233 51.849 100.875 51.0474C101.138 50.7162 101.458 50.175 101.657 49.7165C102.468 47.8595 102.344 45.9959 101.331 44.7855C101.128 44.5451 100.882 44.3547 100.621 44.2373Z" fill="#C9BA46"/>
<path d="M108.553 57.8074C107.403 57.279 106.02 57.3851 104.717 58.104C104.117 58.436 103.709 58.7602 103.176 59.3334C102.986 59.5386 102.921 59.6211 102.744 59.8844C102.527 60.2065 102.438 60.3785 102.329 60.6836C102.036 61.5021 102.072 62.3534 102.424 62.9578C102.616 63.2878 102.842 63.5143 103.152 63.6854C103.905 64.1028 104.754 64.2094 105.711 64.0073C106.765 63.7834 107.792 63.1827 108.561 62.3429C108.753 62.1347 109.087 61.693 109.203 61.4983C109.795 60.4964 109.849 59.3006 109.338 58.5052C109.139 58.198 108.861 57.9494 108.553 57.8074Z" fill="#C9BA46"/>
<path d="M92.2488 47.402C91.4989 47.0608 90.6146 47.1493 89.9857 47.6309C89.7631 47.8006 89.4892 48.0732 89.2696 48.342C88.4729 49.3163 88.0467 50.7366 88.1536 52.0613C88.2344 53.0507 88.5974 53.9421 89.2045 54.6421C89.7158 55.2302 90.3829 55.4503 91.1789 55.2955C91.8894 55.1574 92.5193 54.681 93.0696 53.8649C93.2837 53.5475 93.3852 53.3636 93.5279 53.0317C94.0199 51.8947 94.0986 50.5419 93.7406 49.3791C93.5761 48.8446 93.2705 48.2488 93.0151 47.9661C92.8142 47.7428 92.5175 47.5247 92.2488 47.402Z" fill="#C9BA46"/>
<path d="M97.7373 56.5982C97.1577 56.2952 96.5278 56.0799 95.8472 55.9567C94.8059 55.7703 93.6337 55.8381 92.7012 56.1419C90.6882 56.7985 88.9277 57.792 87.69 58.9692C87.614 59.0418 87.4948 59.1484 87.4256 59.2076C87.0681 59.514 86.7969 59.9529 86.6799 60.4169C86.4915 61.164 86.6464 61.9465 87.0955 62.5333C87.3641 62.8834 87.8839 63.2317 88.543 63.5004C88.9715 63.6768 89.3139 63.777 90.3124 64.0201C91.7032 64.3565 92.0646 64.4854 92.8596 64.9201C93.2149 65.1147 93.2764 65.1539 93.4956 65.3265C94.0574 65.7662 94.4369 66.2091 95.0855 67.1782C95.6601 68.0366 95.985 68.5103 96.0756 68.6164C96.9775 69.6843 98.3469 70.0423 99.2934 69.4573C99.7087 69.1989 100.134 68.609 100.38 67.9436C100.618 67.2958 100.823 66.1204 100.846 65.2507C100.914 62.7955 100.779 61.3147 100.369 59.979C99.9821 58.7249 99.4895 57.9218 98.6804 57.2342C98.453 57.0403 98.007 56.7395 97.7373 56.5982Z" fill="#C9BA46"/>
<path d="M42.1428 82.9094C40.8103 82.5089 39.3319 82.9516 38.0584 84.1337C37.4638 84.6855 36.8922 85.4662 36.61 86.112C36.0506 87.3873 36.0741 88.6539 36.6699 89.5608C37.0073 90.0748 37.4546 90.387 37.9884 90.486C38.3625 90.5553 38.9234 90.5513 39.3313 90.4762C40.4134 90.2793 41.4792 89.6286 42.2916 88.6698C42.5699 88.3409 42.6935 88.1642 42.9282 87.754C43.3802 86.9711 43.5999 86.3366 43.6479 85.6893C43.7204 84.7045 43.423 83.8599 42.8094 83.3051C42.6403 83.1535 42.3219 82.9653 42.1428 82.9094Z" fill="#C9BA46"/>
<path d="M34.6216 78.6663C33.9076 78.405 33.001 78.5632 32.214 79.0858C31.7843 79.3705 31.4692 79.6997 31.0881 80.2626C30.9202 80.5086 30.6918 80.9267 30.5715 81.2023C29.8901 82.7673 29.8615 84.4007 30.4954 85.6898C30.6221 85.9484 30.867 86.3163 31.0551 86.5284C31.1884 86.6787 31.2267 86.7094 31.4048 86.823C31.6418 86.9728 31.828 87.0501 32.0791 87.1045C32.4682 87.189 32.832 87.179 33.23 87.0723C34.0184 86.8611 34.7642 86.2866 35.3488 85.4422C35.589 85.0934 35.8704 84.5312 36.0368 84.0601C36.7162 82.151 36.4624 80.3007 35.3675 79.1638C35.1484 78.9381 34.8901 78.7653 34.6216 78.6663Z" fill="#C9BA46"/>
<path d="M43.4799 91.6508C42.295 91.2039 40.923 91.4061 39.6737 92.214C39.0982 92.587 38.7139 92.9388 38.2221 93.5478C38.0467 93.7657 37.9879 93.8525 37.8291 94.1275C37.6349 94.464 37.5581 94.6418 37.4707 94.9537C37.2356 95.7906 37.3312 96.6374 37.7241 97.2158C37.9386 97.5316 38.1795 97.7419 38.5011 97.8909C39.281 98.2548 40.1359 98.302 41.0758 98.0337C42.1121 97.7369 43.0946 97.0662 43.8033 96.1748C43.9806 95.9537 44.2829 95.4898 44.3846 95.2875C44.9057 94.2468 44.8762 93.0501 44.3108 92.2923C44.0916 91.9996 43.7965 91.7711 43.4799 91.6508Z" fill="#C9BA46"/>
<path d="M26.49 82.4068C25.7182 82.1186 24.8423 82.2686 24.2485 82.7928C24.0382 82.9776 23.7839 83.2686 23.5836 83.552C22.8567 84.5795 22.5305 86.026 22.7295 87.3401C22.8789 88.3214 23.3032 89.1854 23.9576 89.8414C24.5086 90.3925 25.1894 90.5656 25.9727 90.3557C26.6719 90.1684 27.267 89.6493 27.7592 88.7968C27.9507 88.4652 28.0391 88.2747 28.1583 87.9337C28.5699 86.7651 28.5541 85.4102 28.116 84.2751C27.9146 83.7534 27.5683 83.1803 27.2938 82.9161C27.0779 82.7073 26.7667 82.5104 26.49 82.4068Z" fill="#C9BA46"/>
<path d="M32.606 91.1981C32.0066 90.9362 31.3633 90.7654 30.6758 90.6898C29.624 90.5764 28.4594 90.7258 27.5503 91.0938C25.5879 91.889 23.901 93.0028 22.7483 94.2633C22.6776 94.3411 22.5661 94.4557 22.5012 94.5196C22.1658 94.8501 21.9259 95.3068 21.8415 95.7779C21.7056 96.5363 21.9146 97.3062 22.4036 97.8602C22.6959 98.1907 23.2387 98.502 23.9149 98.7242C24.3547 98.8702 24.7032 98.9464 25.7163 99.1193C27.1271 99.358 27.4966 99.4613 28.3199 99.8396C28.688 100.009 28.752 100.044 28.9828 100.201C29.5738 100.6 29.9832 101.016 30.6978 101.937C31.3308 102.753 31.6879 103.203 31.7857 103.303C32.7598 104.305 34.1508 104.567 35.0542 103.917C35.4505 103.631 35.8332 103.013 36.0323 102.332C36.2252 101.669 36.3475 100.482 36.3101 99.6129C36.2064 97.159 35.9689 95.6912 35.4664 94.3874C34.9935 93.1632 34.4462 92.3964 33.5911 91.7669C33.3507 91.5892 32.8848 91.3203 32.606 91.1981Z" fill="#C9BA46"/>
<path d="M42.1428 82.9094C40.8103 82.5089 39.3319 82.9516 38.0584 84.1337C37.4638 84.6855 36.8922 85.4662 36.61 86.112C36.0506 87.3873 36.0741 88.6539 36.6699 89.5608C37.0073 90.0748 37.4546 90.387 37.9884 90.486C38.3625 90.5553 38.9234 90.5513 39.3313 90.4762C40.4134 90.2793 41.4792 89.6286 42.2916 88.6698C42.5699 88.3409 42.6935 88.1642 42.9282 87.754C43.3802 86.9711 43.5999 86.3366 43.6479 85.6893C43.7204 84.7045 43.423 83.8599 42.8094 83.3051C42.6403 83.1535 42.3219 82.9653 42.1428 82.9094Z" fill="#C9BA46"/>
<path d="M34.6216 78.6663C33.9076 78.405 33.001 78.5632 32.214 79.0858C31.7843 79.3705 31.4692 79.6997 31.0881 80.2626C30.9202 80.5086 30.6918 80.9267 30.5715 81.2023C29.8901 82.7673 29.8615 84.4007 30.4954 85.6898C30.6221 85.9484 30.867 86.3163 31.0551 86.5284C31.1884 86.6787 31.2267 86.7094 31.4048 86.823C31.6418 86.9728 31.828 87.0501 32.0791 87.1045C32.4682 87.189 32.832 87.179 33.23 87.0723C34.0184 86.8611 34.7642 86.2866 35.3488 85.4422C35.589 85.0934 35.8704 84.5312 36.0368 84.0601C36.7162 82.151 36.4624 80.3007 35.3675 79.1638C35.1484 78.9381 34.8901 78.7653 34.6216 78.6663Z" fill="#C9BA46"/>
<path d="M43.4799 91.6508C42.295 91.2039 40.923 91.4061 39.6737 92.214C39.0982 92.587 38.7139 92.9388 38.2221 93.5478C38.0467 93.7657 37.9879 93.8525 37.8291 94.1275C37.6349 94.464 37.5581 94.6418 37.4707 94.9537C37.2356 95.7906 37.3312 96.6374 37.7241 97.2158C37.9386 97.5316 38.1795 97.7419 38.5011 97.8909C39.281 98.2548 40.1359 98.302 41.0758 98.0337C42.1121 97.7369 43.0946 97.0662 43.8033 96.1748C43.9806 95.9537 44.2829 95.4898 44.3846 95.2875C44.9057 94.2468 44.8762 93.0501 44.3108 92.2923C44.0916 91.9996 43.7965 91.7711 43.4799 91.6508Z" fill="#C9BA46"/>
<path d="M26.49 82.4068C25.7182 82.1186 24.8423 82.2686 24.2485 82.7928C24.0382 82.9776 23.7839 83.2686 23.5836 83.552C22.8567 84.5795 22.5305 86.026 22.7295 87.3401C22.8789 88.3214 23.3032 89.1854 23.9576 89.8414C24.5086 90.3925 25.1894 90.5656 25.9727 90.3557C26.6719 90.1684 27.267 89.6493 27.7592 88.7968C27.9507 88.4652 28.0391 88.2747 28.1583 87.9337C28.5699 86.7651 28.5541 85.4102 28.116 84.2751C27.9146 83.7534 27.5683 83.1803 27.2938 82.9161C27.0779 82.7073 26.7667 82.5104 26.49 82.4068Z" fill="#C9BA46"/>
<path d="M32.606 91.1981C32.0066 90.9362 31.3633 90.7654 30.6758 90.6898C29.624 90.5764 28.4594 90.7258 27.5503 91.0938C25.5879 91.889 23.901 93.0028 22.7483 94.2633C22.6776 94.3411 22.5661 94.4557 22.5012 94.5196C22.1658 94.8501 21.9259 95.3068 21.8415 95.7779C21.7056 96.5363 21.9146 97.3062 22.4036 97.8602C22.6959 98.1907 23.2387 98.502 23.9149 98.7242C24.3547 98.8702 24.7032 98.9464 25.7163 99.1193C27.1271 99.358 27.4966 99.4613 28.3199 99.8396C28.688 100.009 28.752 100.044 28.9828 100.201C29.5738 100.6 29.9832 101.016 30.6978 101.937C31.3308 102.753 31.6879 103.203 31.7857 103.303C32.7598 104.305 34.1508 104.567 35.0542 103.917C35.4505 103.631 35.8332 103.013 36.0323 102.332C36.2252 101.669 36.3475 100.482 36.3101 99.6129C36.2064 97.159 35.9689 95.6912 35.4664 94.3874C34.9935 93.1632 34.4462 92.3964 33.5911 91.7669C33.3507 91.5892 32.8848 91.3203 32.606 91.1981Z" fill="#C9BA46"/>
<path d="M84.8285 87.9942C83.5272 87.5018 82.0215 87.8404 80.6687 88.9309C80.0371 89.4399 79.4126 90.179 79.086 90.8035C78.4391 92.0367 78.3743 93.3019 78.9055 94.2481C79.2062 94.7844 79.6307 95.127 80.1563 95.2629C80.5247 95.3581 81.0845 95.3932 81.4966 95.3467C82.5898 95.2256 83.6984 94.6508 84.5756 93.751C84.8761 93.4423 85.0117 93.2746 85.2744 92.8818C85.7799 92.1323 86.0432 91.5146 86.1363 90.8722C86.2772 89.8949 86.0393 89.0316 85.4659 88.4353C85.3078 88.2723 85.0032 88.0625 84.8285 87.9942Z" fill="#C9BA46"/>
<path d="M77.6213 83.2373C76.9272 82.9269 76.0118 83.0215 75.1903 83.488C74.7419 83.7421 74.4045 84.0485 73.9852 84.5835C73.8005 84.8172 73.5435 85.2183 73.4043 85.4849C72.6155 86.9986 72.4732 88.6261 73.0158 89.9562C73.1242 90.2231 73.3428 90.6071 73.5157 90.8318C73.6381 90.991 73.6742 91.0243 73.844 91.1501C74.07 91.316 74.2503 91.4061 74.4971 91.4778C74.8793 91.5892 75.2429 91.6046 75.6474 91.5259C76.4486 91.3701 77.2326 90.849 77.8746 90.0474C78.1385 89.7162 78.4584 89.175 78.6572 88.7165C79.468 86.8595 79.3438 84.9959 78.3307 83.7855C78.1279 83.5451 77.8823 83.3547 77.6213 83.2373Z" fill="#C9BA46"/>
<path d="M85.5535 96.8074C84.4026 96.279 83.0199 96.3851 81.7173 97.104C81.1172 97.436 80.7093 97.7602 80.1763 98.3334C79.9861 98.5386 79.9214 98.6211 79.7439 98.8844C79.5267 99.2065 79.4377 99.3785 79.3288 99.6836C79.0359 100.502 79.0723 101.353 79.4239 101.958C79.6159 102.288 79.8416 102.514 80.1521 102.685C80.9046 103.103 81.7542 103.209 82.7106 103.007C83.7649 102.783 84.7918 102.183 85.5609 101.343C85.7532 101.135 86.0871 100.693 86.2026 100.498C86.7949 99.4964 86.8489 98.3006 86.3377 97.5052C86.1394 97.198 85.861 96.9494 85.5535 96.8074Z" fill="#C9BA46"/>
<path d="M69.2488 86.402C68.4989 86.0608 67.6146 86.1493 66.9857 86.6309C66.7631 86.8006 66.4892 87.0732 66.2696 87.342C65.4729 88.3163 65.0467 89.7366 65.1536 91.0613C65.2344 92.0507 65.5974 92.9421 66.2045 93.6421C66.7158 94.2302 67.3829 94.4503 68.1789 94.2955C68.8894 94.1574 69.5193 93.681 70.0696 92.8649C70.2837 92.5475 70.3852 92.3636 70.5279 92.0317C71.0199 90.8947 71.0986 89.5419 70.7406 88.3791C70.5761 87.8446 70.2705 87.2488 70.0151 86.9661C69.8142 86.7428 69.5175 86.5247 69.2488 86.402Z" fill="#C9BA46"/>
<path d="M74.7373 95.5982C74.1577 95.2952 73.5278 95.0799 72.8472 94.9567C71.8059 94.7703 70.6337 94.8381 69.7012 95.1419C67.6882 95.7985 65.9277 96.792 64.69 97.9692C64.614 98.0418 64.4948 98.1484 64.4256 98.2076C64.0681 98.514 63.7969 98.9529 63.6799 99.4169C63.4915 100.164 63.6464 100.947 64.0955 101.533C64.3641 101.883 64.8839 102.232 65.543 102.5C65.9715 102.677 66.3139 102.777 67.3124 103.02C68.7032 103.357 69.0646 103.485 69.8596 103.92C70.2149 104.115 70.2764 104.154 70.4956 104.327C71.0574 104.766 71.4369 105.209 72.0855 106.178C72.6601 107.037 72.985 107.51 73.0756 107.616C73.9775 108.684 75.3469 109.042 76.2934 108.457C76.7087 108.199 77.1335 107.609 77.3795 106.944C77.6182 106.296 77.8228 105.12 77.8461 104.251C77.9136 101.795 77.779 100.315 77.3686 98.979C76.9821 97.7249 76.4895 96.9218 75.6804 96.2342C75.453 96.0403 75.007 95.7395 74.7373 95.5982Z" fill="#C9BA46"/>
<path d="M21.1428 119.909C19.8103 119.509 18.3319 119.952 17.0584 121.134C16.4638 121.685 15.8922 122.466 15.61 123.112C15.0506 124.387 15.0741 125.654 15.6699 126.561C16.0073 127.075 16.4546 127.387 16.9884 127.486C17.3625 127.555 17.9234 127.551 18.3313 127.476C19.4134 127.279 20.4792 126.629 21.2916 125.67C21.5699 125.341 21.6935 125.164 21.9282 124.754C22.3802 123.971 22.5999 123.337 22.6479 122.689C22.7204 121.705 22.423 120.86 21.8094 120.305C21.6403 120.153 21.3219 119.965 21.1428 119.909Z" fill="#C9BA46"/>
<path d="M13.6216 115.666C12.9076 115.405 12.001 115.563 11.214 116.086C10.7843 116.37 10.4692 116.7 10.0881 117.263C9.9202 117.509 9.69176 117.927 9.57145 118.202C8.89007 119.767 8.86148 121.401 9.4954 122.69C9.62214 122.948 9.86701 123.316 10.0551 123.528C10.1884 123.679 10.2267 123.709 10.4048 123.823C10.6418 123.973 10.828 124.05 11.0791 124.105C11.4682 124.189 11.832 124.179 12.23 124.072C13.0184 123.861 13.7642 123.287 14.3488 122.442C14.589 122.093 14.8704 121.531 15.0368 121.06C15.7162 119.151 15.4624 117.301 14.3675 116.164C14.1484 115.938 13.8901 115.765 13.6216 115.666Z" fill="#C9BA46"/>
<path d="M22.4799 128.651C21.295 128.204 19.923 128.406 18.6737 129.214C18.0982 129.587 17.7139 129.939 17.2221 130.548C17.0467 130.766 16.9879 130.853 16.8291 131.128C16.6349 131.464 16.5581 131.642 16.4707 131.954C16.2356 132.791 16.3312 133.637 16.7241 134.216C16.9386 134.532 17.1795 134.742 17.5011 134.891C18.281 135.255 19.1359 135.302 20.0758 135.034C21.1121 134.737 22.0946 134.066 22.8033 133.175C22.9806 132.954 23.2829 132.49 23.3846 132.288C23.9057 131.247 23.8762 130.05 23.3108 129.292C23.0916 129 22.7965 128.771 22.4799 128.651Z" fill="#C9BA46"/>
<path d="M5.49003 119.407C4.71821 119.119 3.84226 119.269 3.24845 119.793C3.03819 119.978 2.7839 120.269 2.58363 120.552C1.85668 121.58 1.53053 123.026 1.72948 124.34C1.87894 125.321 2.30324 126.185 2.95759 126.841C3.50861 127.392 4.18944 127.566 4.97275 127.356C5.67186 127.168 6.26704 126.649 6.75921 125.797C6.95066 125.465 7.03908 125.275 7.15829 124.934C7.56986 123.765 7.55412 122.41 7.11597 121.275C6.91465 120.753 6.56829 120.18 6.29377 119.916C6.07785 119.707 5.76666 119.51 5.49003 119.407Z" fill="#C9BA46"/>
<path d="M11.606 128.198C11.0066 127.936 10.3633 127.765 9.67582 127.69C8.62404 127.576 7.45943 127.726 6.5503 128.094C4.58793 128.889 2.90098 130.003 1.74833 131.263C1.67756 131.341 1.56607 131.456 1.50115 131.52C1.16583 131.85 0.925864 132.307 0.84152 132.778C0.705624 133.536 0.914644 134.306 1.40357 134.86C1.69586 135.191 2.23869 135.502 2.91489 135.724C3.35466 135.87 3.70323 135.946 4.71628 136.119C6.12707 136.358 6.4966 136.461 7.31992 136.84C7.68799 137.009 7.75201 137.044 7.98276 137.201C8.57385 137.6 8.98323 138.016 9.69779 138.937C10.3308 139.753 10.6879 140.203 10.7857 140.303C11.7598 141.305 13.1508 141.567 14.0542 140.917C14.4505 140.631 14.8332 140.013 15.0323 139.332C15.2252 138.669 15.3475 137.482 15.3101 136.613C15.2064 134.159 14.9689 132.691 14.4664 131.387C13.9935 130.163 13.4462 129.396 12.5911 128.767C12.3507 128.589 11.8848 128.32 11.606 128.198Z" fill="#C9BA46"/>
<path d="M21.1428 119.909C19.8103 119.509 18.3319 119.952 17.0584 121.134C16.4638 121.685 15.8922 122.466 15.61 123.112C15.0506 124.387 15.0741 125.654 15.6699 126.561C16.0073 127.075 16.4546 127.387 16.9884 127.486C17.3625 127.555 17.9234 127.551 18.3313 127.476C19.4134 127.279 20.4792 126.629 21.2916 125.67C21.5699 125.341 21.6935 125.164 21.9282 124.754C22.3802 123.971 22.5999 123.337 22.6479 122.689C22.7204 121.705 22.423 120.86 21.8094 120.305C21.6403 120.153 21.3219 119.965 21.1428 119.909Z" fill="#C9BA46"/>
<path d="M13.6216 115.666C12.9076 115.405 12.001 115.563 11.214 116.086C10.7843 116.37 10.4692 116.7 10.0881 117.263C9.9202 117.509 9.69176 117.927 9.57145 118.202C8.89007 119.767 8.86148 121.401 9.4954 122.69C9.62214 122.948 9.86701 123.316 10.0551 123.528C10.1884 123.679 10.2267 123.709 10.4048 123.823C10.6418 123.973 10.828 124.05 11.0791 124.105C11.4682 124.189 11.832 124.179 12.23 124.072C13.0184 123.861 13.7642 123.287 14.3488 122.442C14.589 122.093 14.8704 121.531 15.0368 121.06C15.7162 119.151 15.4624 117.301 14.3675 116.164C14.1484 115.938 13.8901 115.765 13.6216 115.666Z" fill="#C9BA46"/>
<path d="M22.4799 128.651C21.295 128.204 19.923 128.406 18.6737 129.214C18.0982 129.587 17.7139 129.939 17.2221 130.548C17.0467 130.766 16.9879 130.853 16.8291 131.128C16.6349 131.464 16.5581 131.642 16.4707 131.954C16.2356 132.791 16.3312 133.637 16.7241 134.216C16.9386 134.532 17.1795 134.742 17.5011 134.891C18.281 135.255 19.1359 135.302 20.0758 135.034C21.1121 134.737 22.0946 134.066 22.8033 133.175C22.9806 132.954 23.2829 132.49 23.3846 132.288C23.9057 131.247 23.8762 130.05 23.3108 129.292C23.0916 129 22.7965 128.771 22.4799 128.651Z" fill="#C9BA46"/>
<path d="M5.49003 119.407C4.71821 119.119 3.84226 119.269 3.24845 119.793C3.03819 119.978 2.7839 120.269 2.58363 120.552C1.85668 121.58 1.53053 123.026 1.72948 124.34C1.87894 125.321 2.30324 126.185 2.95759 126.841C3.50861 127.392 4.18944 127.566 4.97275 127.356C5.67186 127.168 6.26704 126.649 6.75921 125.797C6.95066 125.465 7.03908 125.275 7.15829 124.934C7.56986 123.765 7.55412 122.41 7.11597 121.275C6.91465 120.753 6.56829 120.18 6.29377 119.916C6.07785 119.707 5.76666 119.51 5.49003 119.407Z" fill="#C9BA46"/>
<path d="M11.606 128.198C11.0066 127.936 10.3633 127.765 9.67582 127.69C8.62404 127.576 7.45943 127.726 6.5503 128.094C4.58793 128.889 2.90098 130.003 1.74833 131.263C1.67756 131.341 1.56607 131.456 1.50115 131.52C1.16583 131.85 0.925864 132.307 0.84152 132.778C0.705624 133.536 0.914644 134.306 1.40357 134.86C1.69586 135.191 2.23869 135.502 2.91489 135.724C3.35466 135.87 3.70323 135.946 4.71628 136.119C6.12707 136.358 6.4966 136.461 7.31992 136.84C7.68799 137.009 7.75201 137.044 7.98276 137.201C8.57385 137.6 8.98323 138.016 9.69779 138.937C10.3308 139.753 10.6879 140.203 10.7857 140.303C11.7598 141.305 13.1508 141.567 14.0542 140.917C14.4505 140.631 14.8332 140.013 15.0323 139.332C15.2252 138.669 15.3475 137.482 15.3101 136.613C15.2064 134.159 14.9689 132.691 14.4664 131.387C13.9935 130.163 13.4462 129.396 12.5911 128.767C12.3507 128.589 11.8848 128.32 11.606 128.198Z" fill="#C9BA46"/>
<path d="M63.8285 124.994C62.5272 124.502 61.0215 124.841 59.6687 125.931C59.0371 126.44 58.4126 127.179 58.086 127.804C57.4391 129.037 57.3743 130.302 57.9055 131.248C58.2062 131.784 58.6307 132.127 59.1563 132.263C59.5247 132.358 60.0845 132.393 60.4966 132.347C61.5898 132.226 62.6984 131.651 63.5756 130.751C63.8761 130.442 64.0117 130.275 64.2744 129.882C64.7799 129.132 65.0432 128.515 65.1363 127.872C65.2772 126.895 65.0393 126.032 64.4659 125.435C64.3078 125.272 64.0032 125.063 63.8285 124.994Z" fill="#C9BA46"/>
<path d="M56.6213 120.237C55.9272 119.927 55.0118 120.022 54.1903 120.488C53.7419 120.742 53.4045 121.049 52.9852 121.584C52.8005 121.817 52.5435 122.218 52.4043 122.485C51.6155 123.999 51.4732 125.626 52.0158 126.956C52.1242 127.223 52.3428 127.607 52.5157 127.832C52.6381 127.991 52.6742 128.024 52.844 128.15C53.07 128.316 53.2503 128.406 53.4971 128.478C53.8793 128.589 54.2429 128.605 54.6474 128.526C55.4486 128.37 56.2326 127.849 56.8746 127.047C57.1385 126.716 57.4584 126.175 57.6572 125.717C58.468 123.86 58.3438 121.996 57.3307 120.786C57.1279 120.545 56.8823 120.355 56.6213 120.237Z" fill="#C9BA46"/>
<path d="M64.5535 133.807C63.4026 133.279 62.0199 133.385 60.7173 134.104C60.1172 134.436 59.7093 134.76 59.1763 135.334C58.9861 135.539 58.9214 135.621 58.7439 135.884C58.5267 136.207 58.4377 136.379 58.3288 136.684C58.0359 137.502 58.0723 138.354 58.4239 138.958C58.6159 139.288 58.8416 139.514 59.1521 139.686C59.9046 140.103 60.7542 140.21 61.7106 140.007C62.7649 139.784 63.7918 139.183 64.5609 138.343C64.7532 138.135 65.0871 137.693 65.2026 137.498C65.7949 136.497 65.8489 135.301 65.3377 134.505C65.1394 134.198 64.861 133.95 64.5535 133.807Z" fill="#C9BA46"/>
<path d="M48.2488 123.402C47.4989 123.061 46.6146 123.149 45.9857 123.631C45.7631 123.801 45.4892 124.073 45.2696 124.342C44.4729 125.316 44.0467 126.737 44.1536 128.061C44.2344 129.051 44.5974 129.942 45.2045 130.642C45.7158 131.23 46.3829 131.45 47.1789 131.296C47.8894 131.158 48.5193 130.681 49.0696 129.865C49.2837 129.548 49.3852 129.364 49.5279 129.032C50.0199 127.895 50.0986 126.542 49.7406 125.379C49.5761 124.845 49.2705 124.249 49.0151 123.966C48.8142 123.743 48.5175 123.525 48.2488 123.402Z" fill="#C9BA46"/>
<path d="M53.7373 132.598C53.1577 132.295 52.5278 132.08 51.8472 131.957C50.8059 131.77 49.6337 131.838 48.7012 132.142C46.6882 132.798 44.9277 133.792 43.69 134.969C43.614 135.042 43.4948 135.148 43.4256 135.208C43.0681 135.514 42.7969 135.953 42.6799 136.417C42.4915 137.164 42.6464 137.947 43.0955 138.533C43.3641 138.883 43.8839 139.232 44.543 139.5C44.9715 139.677 45.3139 139.777 46.3124 140.02C47.7032 140.357 48.0646 140.485 48.8596 140.92C49.2149 141.115 49.2764 141.154 49.4956 141.327C50.0574 141.766 50.4369 142.209 51.0855 143.178C51.6601 144.037 51.985 144.51 52.0756 144.616C52.9775 145.684 54.3469 146.042 55.2934 145.457C55.7087 145.199 56.1335 144.609 56.3795 143.944C56.6182 143.296 56.8228 142.12 56.8461 141.251C56.9136 138.795 56.779 137.315 56.3686 135.979C55.9821 134.725 55.4895 133.922 54.6804 133.234C54.453 133.04 54.007 132.74 53.7373 132.598Z" fill="#C9BA46"/>
</svg>
